<svg xmlns="http://www.w3.org/2000/svg" viewBox="0 0 300 240" fill="white">

  <!-- Wave swoosh at base -->
  <path d="M 15 185 Q 75 162 150 178 Q 220 194 285 170 L 285 200 Q 220 218 150 202 Q 75 186 15 208 Z" fill="white"/>

  <!-- LEFT HOUSE -->
  <!-- Left chimney -->
  <rect x="72" y="64" width="16" height="28" fill="white"/>
  <rect x="68" y="60" width="24" height="8" rx="2" fill="white"/>
  <!-- Left roof -->
  <polygon points="18,130 90,68 162,130" fill="white"/>
  <!-- Left wall -->
  <rect x="30" y="128" width="120" height="62" rx="2" fill="white"/>
  <!-- Left window 1 -->
  <rect x="42" y="138" width="34" height="28" rx="2" fill="white"/>
  <line x1="59" y1="140" x2="59" y2="164" stroke="rgba(0,0,0,0.15)" stroke-width="2"/>
  <line x1="44" y1="152" x2="74" y2="152" stroke="rgba(0,0,0,0.15)" stroke-width="2"/>
  <!-- Left window 2 -->
  <rect x="104" y="138" width="34" height="28" rx="2" fill="white"/>
  <line x1="121" y1="140" x2="121" y2="164" stroke="rgba(0,0,0,0.15)" stroke-width="2"/>
  <line x1="106" y1="152" x2="136" y2="152" stroke="rgba(0,0,0,0.15)" stroke-width="2"/>
  <!-- Left door -->
  <rect x="68" y="162" width="24" height="28" rx="2" fill="rgba(255,255,255,0.35)"/>

  <!-- RIGHT HOUSE -->
  <!-- Right roof -->
  <polygon points="136,148 198,90 260,148" fill="white"/>
  <!-- Roof trim line -->
  <polyline points="136,148 198,90 260,148" fill="none" stroke="rgba(255,255,255,0.6)" stroke-width="2.5"/>
  <!-- Right wall -->
  <rect x="148" y="146" width="100" height="44" rx="2" fill="white"/>
  <!-- Right window -->
  <rect x="172" y="154" width="36" height="28" rx="2" fill="white"/>
  <line x1="190" y1="156" x2="190" y2="180" stroke="rgba(0,0,0,0.15)" stroke-width="2"/>
  <line x1="174" y1="168" x2="206" y2="168" stroke="rgba(0,0,0,0.15)" stroke-width="2"/>

  <!-- TREE -->
  <rect x="248" y="128" width="12" height="42" fill="white"/>
  <ellipse cx="254" cy="100" rx="32" ry="36" fill="white"/>
  <ellipse cx="236" cy="116" rx="20" ry="22" fill="white"/>
  <ellipse cx="272" cy="112" rx="18" ry="20" fill="white"/>

</svg>
