<?xml version="1.0" standalone="no"?>
<!DOCTYPE svg PUBLIC "-//W3C//DTD SVG 20010904//EN"
 "http://www.w3.org/TR/2001/REC-SVG-20010904/DTD/svg10.dtd">
<svg version="1.0" xmlns="http://www.w3.org/2000/svg"
 width="597.000000pt" height="473.000000pt" viewBox="0 0 597.000000 473.000000"
 preserveAspectRatio="xMidYMid meet">

<g transform="translate(0.000000,473.000000) scale(0.100000,-0.100000)"
fill="#000000" stroke="none">
<path d="M4320 4701 c-76 -23 -149 -80 -196 -151 -15 -22 -39 -43 -57 -49 -56
-20 -125 -71 -166 -125 -29 -38 -52 -56 -78 -64 -131 -39 -240 -178 -262 -332
-4 -35 -14 -66 -20 -68 -30 -10 -99 -73 -133 -121 -93 -133 -107 -308 -37
-465 11 -25 22 -46 23 -46 6 0 493 102 881 185 95 20 122 23 131 13 7 -7 136
-196 288 -420 153 -224 281 -410 287 -413 15 -10 102 87 131 147 36 74 47 127
48 226 0 51 4 82 11 82 22 0 123 108 149 160 40 79 51 129 51 225 0 63 -6 101
-24 154 -26 73 -85 164 -118 182 -14 7 -19 21 -19 48 0 153 -101 336 -210 381
-19 8 -39 27 -50 50 -38 74 -122 143 -212 173 -9 3 -27 25 -39 48 -34 68 -116
143 -182 167 -59 22 -147 28 -197 13z"/>
<path d="M2730 3310 c0 -321 3 -316 -111 -190 l-73 80 -290 0 -291 0 -129
-190 c-86 -125 -136 -190 -148 -190 -9 0 -30 -17 -47 -37 -122 -155 -781
-1026 -781 -1034 0 -5 459 -8 1192 -7 l1192 3 531 747 c292 411 535 752 542
759 8 8 29 -14 79 -88 38 -55 242 -350 454 -656 l385 -558 3 67 3 66 -78 114
c-43 63 -123 180 -178 262 -55 81 -217 318 -360 527 -143 208 -263 383 -267
389 -5 7 -28 6 -70 -3 -100 -20 -1051 -221 -1075 -228 l-23 -5 0 221 0 221
-230 0 -230 0 0 -270z m-467 -485 c131 -117 236 -218 236 -227 1 -10 -2 -18
-5 -18 -4 0 -265 230 -294 260 -57 58 -183 161 -188 153 -132 -204 -299 -453
-304 -453 -18 0 -5 28 54 119 191 296 250 382 257 379 5 -2 115 -97 244 -213z
m-107 -22 c66 -60 170 -152 231 -205 113 -100 123 -114 118 -183 -1 -16 -3
-130 -3 -253 l-2 -222 -397 2 -398 3 -3 245 -2 246 161 237 c88 130 164 237
168 237 5 0 62 -48 127 -107z"/>
<path d="M1917 2653 c-4 -3 -7 -107 -7 -230 l0 -223 175 0 175 0 0 230 0 230
-168 0 c-93 0 -172 -3 -175 -7z m163 -123 l0 -90 -70 0 -70 0 0 90 0 90 70 0
70 0 0 -90z m150 0 l0 -91 -67 3 -68 3 -3 88 -3 87 71 0 70 0 0 -90z m-152
-192 l3 -86 -54 -4 c-90 -5 -87 -8 -87 93 l0 90 68 -3 67 -3 3 -87z m152 2 l0
-90 -70 0 -70 0 0 83 c0 46 3 87 7 90 3 4 35 7 70 7 l63 0 0 -90z"/>
<path d="M4257 3103 c-35 -49 -270 -378 -522 -733 -252 -355 -465 -652 -474
-661 -14 -15 -96 -17 -846 -23 -456 -3 -995 -6 -1197 -6 l-368 0 0 -36 0 -36
1198 7 c658 3 1202 6 1208 6 7 -1 58 63 115 142 56 78 143 198 193 267 50 69
236 328 414 575 178 248 329 456 336 463 12 12 43 -30 766 -1055 78 -112 146
-203 151 -203 5 0 9 11 9 24 0 25 -35 78 -416 633 -137 199 -304 444 -372 543
-68 99 -125 180 -127 180 -2 0 -32 -39 -68 -87z"/>
<path d="M4022 2163 l3 -378 290 0 290 0 0 375 0 375 -293 3 -292 2 2 -377z
m283 157 l0 -145 -110 0 -110 0 -3 134 c-1 74 0 141 3 148 3 11 30 13 112 11
l108 -3 0 -145z m250 0 l0 -145 -110 0 -110 0 -3 139 c-2 105 1 142 10 148 7
4 58 7 113 6 l100 -3 0 -145z m-250 -320 l0 -145 -110 0 -110 0 -3 134 c-1 74
0 141 3 148 3 11 30 13 112 11 l108 -3 0 -145z m250 0 l0 -145 -110 0 -110 0
-3 134 c-1 74 0 141 3 148 3 11 30 13 112 11 l108 -3 0 -145z"/>
<path d="M5461 1705 c-88 -212 -204 -388 -361 -546 -218 -219 -434 -338 -694
-384 -308 -53 -660 26 -1456 330 -537 205 -778 272 -1115 311 -166 19 -390 15
-505 -10 -241 -53 -437 -246 -519 -510 -23 -73 -40 -236 -25 -236 5 0 45 46
89 101 44 55 109 125 145 156 82 69 239 146 345 169 98 21 301 24 400 5 173
-33 475 -120 1058 -305 419 -134 631 -191 882 -240 378 -73 716 -75 965 -6 99
27 279 117 361 179 208 158 370 403 435 657 30 122 50 315 38 369 l-10 39 -33
-79z"/>
<path d="M5221 1638 c-38 -101 -104 -227 -172 -328 -77 -117 -254 -297 -362
-368 -92 -61 -86 -67 15 -16 101 51 193 113 285 192 88 77 225 230 249 280 18
38 34 302 18 302 -5 0 -20 -28 -33 -62z"/>
</g>
</svg>
